<svg width="154" height="40" viewBox="0 0 154 40" fill="none" xmlns="http://www.w3.org/2000/svg">
	<g clipPath="url(#clip0_45_607)">
		<path fillRule="evenodd" clipRule="evenodd"
			d="M13.2086 33.9999C20.4947 33.9949 26.3997 27.9528 26.3997 20.5C26.3997 13.0472 20.4947 7.00497 13.2086 7.00012C18.3711 9.20649 21.9988 14.4199 21.9988 20.5C21.9988 26.58 18.3711 31.7934 13.2086 33.9999Z"
			fill="#444BD3" fillOpacity="0.32" />
		<path
			d="M0 11.8005C0 9.14952 2.07363 7.00049 4.63158 7.00049H7.70016C14.9902 7.00049 20.9 13.0446 20.9 20.5003C20.9 27.9562 14.9902 34.0002 7.70016 34.0002H4.63158C2.07363 34.0002 0 31.8512 0 29.2002V11.8005Z"
			fill="#444BD3" />
		<path
			d="M51.02 19.476C52.1213 19.6813 53.0267 20.232 53.736 21.128C54.4453 22.024 54.8 23.0507 54.8 24.208C54.8 25.2533 54.5387 26.1773 54.016 26.98C53.512 27.764 52.7747 28.38 51.804 28.828C50.8333 29.276 49.6853 29.5 48.36 29.5H39.932V9.956H47.996C49.3213 9.956 50.46 10.1707 51.412 10.6C52.3827 11.0293 53.1107 11.6267 53.596 12.392C54.1 13.1573 54.352 14.0253 54.352 14.996C54.352 16.1347 54.044 17.0867 53.428 17.852C52.8307 18.6173 52.028 19.1587 51.02 19.476ZM43.852 18.02H47.436C48.3693 18.02 49.088 17.8147 49.592 17.404C50.096 16.9747 50.348 16.368 50.348 15.584C50.348 14.8 50.096 14.1933 49.592 13.764C49.088 13.3347 48.3693 13.12 47.436 13.12H43.852V18.02ZM47.8 26.308C48.752 26.308 49.4893 26.084 50.012 25.636C50.5533 25.188 50.824 24.5533 50.824 23.732C50.824 22.892 50.544 22.2387 49.984 21.772C49.424 21.2867 48.668 21.044 47.716 21.044H43.852V26.308H47.8ZM59.9122 12.14C59.2215 12.14 58.6429 11.9253 58.1762 11.496C57.7282 11.048 57.5042 10.4973 57.5042 9.844C57.5042 9.19067 57.7282 8.64933 58.1762 8.22C58.6429 7.772 59.2215 7.548 59.9122 7.548C60.6029 7.548 61.1722 7.772 61.6202 8.22C62.0869 8.64933 62.3202 9.19067 62.3202 9.844C62.3202 10.4973 62.0869 11.048 61.6202 11.496C61.1722 11.9253 60.6029 12.14 59.9122 12.14ZM61.8442 13.988V29.5H57.9242V13.988H61.8442ZM71.7932 13.736C72.9505 13.736 73.9678 13.9693 74.8452 14.436C75.7225 14.884 76.4132 15.472 76.9172 16.2V13.988H80.8652V29.612C80.8652 31.0493 80.5758 32.328 79.9972 33.448C79.4185 34.5867 78.5505 35.4827 77.3932 36.136C76.2358 36.808 74.8358 37.144 73.1932 37.144C70.9905 37.144 69.1798 36.6307 67.7612 35.604C66.3612 34.5773 65.5678 33.1773 65.3812 31.404H69.2732C69.4785 32.1133 69.9172 32.6733 70.5892 33.084C71.2798 33.5133 72.1105 33.728 73.0812 33.728C74.2198 33.728 75.1438 33.3827 75.8532 32.692C76.5625 32.02 76.9172 30.9933 76.9172 29.612V27.204C76.4132 27.932 75.7132 28.5387 74.8172 29.024C73.9398 29.5093 72.9318 29.752 71.7932 29.752C70.4865 29.752 69.2918 29.416 68.2092 28.744C67.1265 28.072 66.2678 27.1293 65.6332 25.916C65.0172 24.684 64.7092 23.2747 64.7092 21.688C64.7092 20.12 65.0172 18.7293 65.6332 17.516C66.2678 16.3027 67.1172 15.3693 68.1812 14.716C69.2638 14.0627 70.4678 13.736 71.7932 13.736ZM76.9172 21.744C76.9172 20.792 76.7305 19.98 76.3572 19.308C75.9838 18.6173 75.4798 18.0947 74.8452 17.74C74.2105 17.3667 73.5292 17.18 72.8012 17.18C72.0732 17.18 71.4012 17.3573 70.7852 17.712C70.1692 18.0667 69.6652 18.5893 69.2732 19.28C68.8998 19.952 68.7132 20.7547 68.7132 21.688C68.7132 22.6213 68.8998 23.4427 69.2732 24.152C69.6652 24.8427 70.1692 25.3747 70.7852 25.748C71.4198 26.1213 72.0918 26.308 72.8012 26.308C73.5292 26.308 74.2105 26.1307 74.8452 25.776C75.4798 25.4027 75.9838 24.88 76.3572 24.208C76.7305 23.5173 76.9172 22.696 76.9172 21.744ZM83.7417 19.7C83.7417 17.7773 84.1711 16.06 85.0297 14.548C85.9071 13.0173 87.0924 11.832 88.5857 10.992C90.0977 10.1333 91.7871 9.704 93.6537 9.704C95.8377 9.704 97.7511 10.264 99.3937 11.384C101.036 12.504 102.184 14.0533 102.838 16.032H98.3297C97.8817 15.0987 97.2471 14.3987 96.4257 13.932C95.6231 13.4653 94.6897 13.232 93.6257 13.232C92.4871 13.232 91.4697 13.5027 90.5737 14.044C89.6964 14.5667 89.0057 15.3133 88.5017 16.284C88.0164 17.2547 87.7737 18.3933 87.7737 19.7C87.7737 20.988 88.0164 22.1267 88.5017 23.116C89.0057 24.0867 89.6964 24.8427 90.5737 25.384C91.4697 25.9067 92.4871 26.168 93.6257 26.168C94.6897 26.168 95.6231 25.9347 96.4257 25.468C97.2471 24.9827 97.8817 24.2733 98.3297 23.34H102.838C102.184 25.3373 101.036 26.896 99.3937 28.016C97.7697 29.1173 95.8564 29.668 93.6537 29.668C91.7871 29.668 90.0977 29.248 88.5857 28.408C87.0924 27.5493 85.9071 26.364 85.0297 24.852C84.1711 23.34 83.7417 21.6227 83.7417 19.7ZM113.074 29.752C111.581 29.752 110.237 29.4253 109.042 28.772C107.847 28.1 106.905 27.1573 106.214 25.944C105.542 24.7307 105.206 23.3307 105.206 21.744C105.206 20.1573 105.551 18.7573 106.242 17.544C106.951 16.3307 107.913 15.3973 109.126 14.744C110.339 14.072 111.693 13.736 113.186 13.736C114.679 13.736 116.033 14.072 117.246 14.744C118.459 15.3973 119.411 16.3307 120.102 17.544C120.811 18.7573 121.166 20.1573 121.166 21.744C121.166 23.3307 120.802 24.7307 120.074 25.944C119.365 27.1573 118.394 28.1 117.162 28.772C115.949 29.4253 114.586 29.752 113.074 29.752ZM113.074 26.336C113.783 26.336 114.446 26.168 115.062 25.832C115.697 25.4773 116.201 24.9547 116.574 24.264C116.947 23.5733 117.134 22.7333 117.134 21.744C117.134 20.2693 116.742 19.14 115.958 18.356C115.193 17.5533 114.25 17.152 113.13 17.152C112.01 17.152 111.067 17.5533 110.302 18.356C109.555 19.14 109.182 20.2693 109.182 21.744C109.182 23.2187 109.546 24.3573 110.274 25.16C111.021 25.944 111.954 26.336 113.074 26.336ZM127.961 16.396C128.465 15.5747 129.119 14.9307 129.921 14.464C130.743 13.9973 131.676 13.764 132.721 13.764V17.88H131.685C130.453 17.88 129.52 18.1693 128.885 18.748C128.269 19.3267 127.961 20.3347 127.961 21.772V29.5H124.041V13.988H127.961V16.396ZM139.282 16.228C139.786 15.5187 140.476 14.9307 141.354 14.464C142.25 13.9787 143.267 13.736 144.406 13.736C145.731 13.736 146.926 14.0627 147.99 14.716C149.072 15.3693 149.922 16.3027 150.538 17.516C151.172 18.7107 151.49 20.1013 151.49 21.688C151.49 23.2747 151.172 24.684 150.538 25.916C149.922 27.1293 149.072 28.072 147.99 28.744C146.926 29.416 145.731 29.752 144.406 29.752C143.267 29.752 142.259 29.5187 141.382 29.052C140.523 28.5853 139.823 27.9973 139.282 27.288V36.892H135.362V13.988H139.282V16.228ZM147.486 21.688C147.486 20.7547 147.29 19.952 146.898 19.28C146.524 18.5893 146.02 18.0667 145.386 17.712C144.77 17.3573 144.098 17.18 143.37 17.18C142.66 17.18 141.988 17.3667 141.354 17.74C140.738 18.0947 140.234 18.6173 139.842 19.308C139.468 19.9987 139.282 20.8107 139.282 21.744C139.282 22.6773 139.468 23.4893 139.842 24.18C140.234 24.8707 140.738 25.4027 141.354 25.776C141.988 26.1307 142.66 26.308 143.37 26.308C144.098 26.308 144.77 26.1213 145.386 25.748C146.02 25.3747 146.524 24.8427 146.898 24.152C147.29 23.4613 147.486 22.64 147.486 21.688Z"
			fill="#444BD3" />
	</g>
	<defs>
		<clipPath id="clip0_45_607">
			<rect width="154" height="39" fill="white" transform="translate(0 0.5)" />
		</clipPath>
	</defs>
</svg>