<svg width="152" height="31" viewBox="0 0 152 31" fill="none" xmlns="http://www.w3.org/2000/svg">
<path fill-rule="evenodd" clip-rule="evenodd" d="M13.2086 27.4999C20.4947 27.4949 26.3997 21.4528 26.3997 14C26.3997 6.54721 20.4947 0.504971 13.2086 0.500122C18.3711 2.70649 21.9988 7.91995 21.9988 14C21.9988 20.08 18.3711 25.2934 13.2086 27.4999Z" fill="#444BD3" fill-opacity="0.32"/>
<path d="M0 5.30049C0 2.64952 2.07363 0.500488 4.63158 0.500488H7.70016C14.9902 0.500488 20.9 6.54458 20.9 14.0003C20.9 21.4562 14.9902 27.5002 7.70016 27.5002H4.63158C2.07363 27.5002 0 25.3512 0 22.7002V5.30049Z" fill="#444BD3"/>
<path d="M51.02 12.976C52.1213 13.1813 53.0267 13.732 53.736 14.628C54.4453 15.524 54.8 16.5507 54.8 17.708C54.8 18.7533 54.5387 19.6773 54.016 20.48C53.512 21.264 52.7747 21.88 51.804 22.328C50.8333 22.776 49.6853 23 48.36 23H39.932V3.456H47.996C49.3213 3.456 50.46 3.67067 51.412 4.1C52.3827 4.52933 53.1107 5.12667 53.596 5.892C54.1 6.65733 54.352 7.52533 54.352 8.496C54.352 9.63467 54.044 10.5867 53.428 11.352C52.8307 12.1173 52.028 12.6587 51.02 12.976ZM43.852 11.52H47.436C48.3693 11.52 49.088 11.3147 49.592 10.904C50.096 10.4747 50.348 9.868 50.348 9.084C50.348 8.3 50.096 7.69333 49.592 7.264C49.088 6.83467 48.3693 6.62 47.436 6.62H43.852V11.52ZM47.8 19.808C48.752 19.808 49.4893 19.584 50.012 19.136C50.5533 18.688 50.824 18.0533 50.824 17.232C50.824 16.392 50.544 15.7387 49.984 15.272C49.424 14.7867 48.668 14.544 47.716 14.544H43.852V19.808H47.8Z" fill="#444BD3"/>
<path d="M59.9122 5.64C59.2215 5.64 58.6429 5.42533 58.1762 4.996C57.7282 4.548 57.5042 3.99733 57.5042 3.344C57.5042 2.69067 57.7282 2.14933 58.1762 1.72C58.6429 1.272 59.2215 1.048 59.9122 1.048C60.6029 1.048 61.1722 1.272 61.6202 1.72C62.0869 2.14933 62.3202 2.69067 62.3202 3.344C62.3202 3.99733 62.0869 4.548 61.6202 4.996C61.1722 5.42533 60.6029 5.64 59.9122 5.64ZM61.8442 7.488V23H57.9242V7.488H61.8442Z" fill="#444BD3"/>
<path d="M71.7932 7.236C72.9505 7.236 73.9678 7.46933 74.8452 7.936C75.7225 8.384 76.4132 8.972 76.9172 9.7V7.488H80.8652V23.112C80.8652 24.5493 80.5758 25.828 79.9972 26.948C79.4185 28.0867 78.5505 28.9827 77.3932 29.636C76.2358 30.308 74.8358 30.644 73.1932 30.644C70.9905 30.644 69.1798 30.1307 67.7612 29.104C66.3612 28.0773 65.5678 26.6773 65.3812 24.904H69.2732C69.4785 25.6133 69.9172 26.1733 70.5892 26.584C71.2798 27.0133 72.1105 27.228 73.0812 27.228C74.2198 27.228 75.1438 26.8827 75.8532 26.192C76.5625 25.52 76.9172 24.4933 76.9172 23.112V20.704C76.4132 21.432 75.7132 22.0387 74.8172 22.524C73.9398 23.0093 72.9318 23.252 71.7932 23.252C70.4865 23.252 69.2918 22.916 68.2092 22.244C67.1265 21.572 66.2678 20.6293 65.6332 19.416C65.0172 18.184 64.7092 16.7747 64.7092 15.188C64.7092 13.62 65.0172 12.2293 65.6332 11.016C66.2678 9.80267 67.1172 8.86933 68.1812 8.216C69.2638 7.56267 70.4678 7.236 71.7932 7.236ZM76.9172 15.244C76.9172 14.292 76.7305 13.48 76.3572 12.808C75.9838 12.1173 75.4798 11.5947 74.8452 11.24C74.2105 10.8667 73.5292 10.68 72.8012 10.68C72.0732 10.68 71.4012 10.8573 70.7852 11.212C70.1692 11.5667 69.6652 12.0893 69.2732 12.78C68.8998 13.452 68.7132 14.2547 68.7132 15.188C68.7132 16.1213 68.8998 16.9427 69.2732 17.652C69.6652 18.3427 70.1692 18.8747 70.7852 19.248C71.4198 19.6213 72.0918 19.808 72.8012 19.808C73.5292 19.808 74.2105 19.6307 74.8452 19.276C75.4798 18.9027 75.9838 18.38 76.3572 17.708C76.7305 17.0173 76.9172 16.196 76.9172 15.244Z" fill="#444BD3"/>
<path d="M83.7417 13.2C83.7417 11.2773 84.171 9.56 85.0297 8.048C85.907 6.51733 87.0924 5.332 88.5857 4.492C90.0977 3.63333 91.787 3.204 93.6537 3.204C95.8377 3.204 97.7511 3.764 99.3937 4.884C101.036 6.004 102.184 7.55333 102.838 9.532H98.3297C97.8817 8.59867 97.2471 7.89867 96.4257 7.432C95.6231 6.96533 94.6897 6.732 93.6257 6.732C92.4871 6.732 91.4697 7.00267 90.5737 7.544C89.6964 8.06667 89.0057 8.81333 88.5017 9.784C88.0164 10.7547 87.7737 11.8933 87.7737 13.2C87.7737 14.488 88.0164 15.6267 88.5017 16.616C89.0057 17.5867 89.6964 18.3427 90.5737 18.884C91.4697 19.4067 92.4871 19.668 93.6257 19.668C94.6897 19.668 95.6231 19.4347 96.4257 18.968C97.2471 18.4827 97.8817 17.7733 98.3297 16.84H102.838C102.184 18.8373 101.036 20.396 99.3937 21.516C97.7697 22.6173 95.8564 23.168 93.6537 23.168C91.787 23.168 90.0977 22.748 88.5857 21.908C87.0924 21.0493 85.907 19.864 85.0297 18.352C84.171 16.84 83.7417 15.1227 83.7417 13.2Z" fill="#444BD3"/>
<path d="M113.074 23.252C111.581 23.252 110.237 22.9253 109.042 22.272C107.847 21.6 106.905 20.6573 106.214 19.444C105.542 18.2307 105.206 16.8307 105.206 15.244C105.206 13.6573 105.551 12.2573 106.242 11.044C106.951 9.83067 107.913 8.89733 109.126 8.244C110.339 7.572 111.693 7.236 113.186 7.236C114.679 7.236 116.033 7.572 117.246 8.244C118.459 8.89733 119.411 9.83067 120.102 11.044C120.811 12.2573 121.166 13.6573 121.166 15.244C121.166 16.8307 120.802 18.2307 120.074 19.444C119.365 20.6573 118.394 21.6 117.162 22.272C115.949 22.9253 114.586 23.252 113.074 23.252ZM113.074 19.836C113.783 19.836 114.446 19.668 115.062 19.332C115.697 18.9773 116.201 18.4547 116.574 17.764C116.947 17.0733 117.134 16.2333 117.134 15.244C117.134 13.7693 116.742 12.64 115.958 11.856C115.193 11.0533 114.25 10.652 113.13 10.652C112.01 10.652 111.067 11.0533 110.302 11.856C109.555 12.64 109.182 13.7693 109.182 15.244C109.182 16.7187 109.546 17.8573 110.274 18.66C111.021 19.444 111.954 19.836 113.074 19.836Z" fill="#444BD3"/>
<path d="M127.961 9.896C128.465 9.07467 129.119 8.43067 129.921 7.964C130.743 7.49733 131.676 7.264 132.721 7.264V11.38H131.685C130.453 11.38 129.52 11.6693 128.885 12.248C128.269 12.8267 127.961 13.8347 127.961 15.272V23H124.041V7.488H127.961V9.896Z" fill="#444BD3"/>
<path d="M139.282 9.728C139.786 9.01867 140.476 8.43067 141.354 7.964C142.25 7.47867 143.267 7.236 144.406 7.236C145.731 7.236 146.926 7.56267 147.99 8.216C149.072 8.86933 149.922 9.80267 150.538 11.016C151.172 12.2107 151.49 13.6013 151.49 15.188C151.49 16.7747 151.172 18.184 150.538 19.416C149.922 20.6293 149.072 21.572 147.99 22.244C146.926 22.916 145.731 23.252 144.406 23.252C143.267 23.252 142.259 23.0187 141.382 22.552C140.523 22.0853 139.823 21.4973 139.282 20.788V30.392H135.362V7.488H139.282V9.728ZM147.486 15.188C147.486 14.2547 147.29 13.452 146.898 12.78C146.524 12.0893 146.02 11.5667 145.386 11.212C144.77 10.8573 144.098 10.68 143.37 10.68C142.66 10.68 141.988 10.8667 141.354 11.24C140.738 11.5947 140.234 12.1173 139.842 12.808C139.468 13.4987 139.282 14.3107 139.282 15.244C139.282 16.1773 139.468 16.9893 139.842 17.68C140.234 18.3707 140.738 18.9027 141.354 19.276C141.988 19.6307 142.66 19.808 143.37 19.808C144.098 19.808 144.77 19.6213 145.386 19.248C146.02 18.8747 146.524 18.3427 146.898 17.652C147.29 16.9613 147.486 16.14 147.486 15.188Z" fill="#444BD3"/>
</svg>
