<svg width="360" height="111" viewBox="0 0 360 111" fill="none" xmlns="http://www.w3.org/2000/svg">
	<path
		d="M127.76 54.088C130.277 54.5573 132.347 55.816 133.968 57.864C135.589 59.912 136.4 62.2587 136.4 64.904C136.4 67.2933 135.803 69.4053 134.608 71.24C133.456 73.032 131.771 74.44 129.552 75.464C127.333 76.488 124.709 77 121.68 77H102.416V32.328H120.848C123.877 32.328 126.48 32.8187 128.656 33.8C130.875 34.7813 132.539 36.1467 133.648 37.896C134.8 39.6453 135.376 41.6293 135.376 43.848C135.376 46.4507 134.672 48.6267 133.264 50.376C131.899 52.1253 130.064 53.3627 127.76 54.088ZM111.376 50.76H119.568C121.701 50.76 123.344 50.2907 124.496 49.352C125.648 48.3707 126.224 46.984 126.224 45.192C126.224 43.4 125.648 42.0133 124.496 41.032C123.344 40.0507 121.701 39.56 119.568 39.56H111.376V50.76ZM120.4 69.704C122.576 69.704 124.261 69.192 125.456 68.168C126.693 67.144 127.312 65.6933 127.312 63.816C127.312 61.896 126.672 60.4027 125.392 59.336C124.112 58.2267 122.384 57.672 120.208 57.672H111.376V69.704H120.4ZM148.085 37.32C146.506 37.32 145.184 36.8293 144.117 35.848C143.093 34.824 142.581 33.5653 142.581 32.072C142.581 30.5787 143.093 29.3413 144.117 28.36C145.184 27.336 146.506 26.824 148.085 26.824C149.664 26.824 150.965 27.336 151.989 28.36C153.056 29.3413 153.589 30.5787 153.589 32.072C153.589 33.5653 153.056 34.824 151.989 35.848C150.965 36.8293 149.664 37.32 148.085 37.32ZM152.501 41.544V77H143.541V41.544H152.501ZM175.242 40.968C177.887 40.968 180.212 41.5013 182.218 42.568C184.223 43.592 185.802 44.936 186.954 46.6V41.544H195.978V77.256C195.978 80.5413 195.316 83.464 193.994 86.024C192.671 88.6267 190.687 90.6747 188.042 92.168C185.396 93.704 182.196 94.472 178.442 94.472C173.407 94.472 169.268 93.2987 166.026 90.952C162.826 88.6053 161.012 85.4053 160.586 81.352H169.482C169.951 82.9733 170.954 84.2533 172.49 85.192C174.068 86.1733 175.967 86.664 178.186 86.664C180.788 86.664 182.9 85.8747 184.522 84.296C186.143 82.76 186.954 80.4133 186.954 77.256V71.752C185.802 73.416 184.202 74.8027 182.154 75.912C180.148 77.0213 177.844 77.576 175.242 77.576C172.255 77.576 169.524 76.808 167.05 75.272C164.575 73.736 162.612 71.5813 161.161 68.808C159.753 65.992 159.049 62.7707 159.049 59.144C159.049 55.56 159.753 52.3813 161.161 49.608C162.612 46.8347 164.554 44.7013 166.986 43.208C169.46 41.7147 172.212 40.968 175.242 40.968ZM186.954 59.272C186.954 57.096 186.527 55.24 185.674 53.704C184.82 52.1253 183.668 50.9307 182.218 50.12C180.767 49.2667 179.21 48.84 177.546 48.84C175.882 48.84 174.346 49.2453 172.938 50.056C171.53 50.8667 170.378 52.0613 169.482 53.64C168.628 55.176 168.202 57.0107 168.202 59.144C168.202 61.2773 168.628 63.1547 169.482 64.776C170.378 66.3547 171.53 67.5707 172.938 68.424C174.388 69.2773 175.924 69.704 177.546 69.704C179.21 69.704 180.767 69.2987 182.218 68.488C183.668 67.6347 184.82 66.44 185.674 64.904C186.527 63.3253 186.954 61.448 186.954 59.272ZM202.553 54.6C202.553 50.2053 203.534 46.28 205.497 42.824C207.502 39.3253 210.211 36.616 213.625 34.696C217.081 32.7333 220.942 31.752 225.209 31.752C230.201 31.752 234.574 33.032 238.329 35.592C242.083 38.152 244.707 41.6933 246.201 46.216H235.897C234.873 44.0827 233.422 42.4827 231.545 41.416C229.71 40.3493 227.577 39.816 225.145 39.816C222.542 39.816 220.217 40.4347 218.169 41.672C216.163 42.8667 214.585 44.5733 213.433 46.792C212.323 49.0107 211.769 51.6133 211.769 54.6C211.769 57.544 212.323 60.1467 213.433 62.408C214.585 64.6267 216.163 66.3547 218.169 67.592C220.217 68.7867 222.542 69.384 225.145 69.384C227.577 69.384 229.71 68.8507 231.545 67.784C233.422 66.6747 234.873 65.0533 235.897 62.92H246.201C244.707 67.4853 242.083 71.048 238.329 73.608C234.617 76.1253 230.243 77.384 225.209 77.384C220.942 77.384 217.081 76.424 213.625 74.504C210.211 72.5413 207.502 69.832 205.497 66.376C203.534 62.92 202.553 58.9947 202.553 54.6ZM269.598 77.576C266.184 77.576 263.112 76.8293 260.382 75.336C257.651 73.8 255.496 71.6453 253.918 68.872C252.382 66.0987 251.614 62.8987 251.614 59.272C251.614 55.6453 252.403 52.4453 253.982 49.672C255.603 46.8987 257.8 44.7653 260.574 43.272C263.347 41.736 266.44 40.968 269.854 40.968C273.267 40.968 276.36 41.736 279.134 43.272C281.907 44.7653 284.083 46.8987 285.662 49.672C287.283 52.4453 288.094 55.6453 288.094 59.272C288.094 62.8987 287.262 66.0987 285.597 68.872C283.976 71.6453 281.758 73.8 278.942 75.336C276.168 76.8293 273.054 77.576 269.598 77.576ZM269.598 69.768C271.219 69.768 272.734 69.384 274.142 68.616C275.592 67.8053 276.744 66.6107 277.598 65.032C278.451 63.4533 278.878 61.5333 278.878 59.272C278.878 55.9013 277.982 53.32 276.19 51.528C274.44 49.6933 272.286 48.776 269.726 48.776C267.166 48.776 265.011 49.6933 263.262 51.528C261.555 53.32 260.702 55.9013 260.702 59.272C260.702 62.6427 261.534 65.2453 263.198 67.08C264.904 68.872 267.038 69.768 269.598 69.768ZM303.626 47.048C304.778 45.1707 306.271 43.6987 308.106 42.632C309.983 41.5653 312.117 41.032 314.506 41.032V50.44H312.138C309.322 50.44 307.189 51.1013 305.738 52.424C304.33 53.7467 303.626 56.0507 303.626 59.336V77H294.666V41.544H303.626V47.048ZM329.501 46.664C330.653 45.0427 332.232 43.6987 334.237 42.632C336.285 41.5227 338.61 40.968 341.213 40.968C344.242 40.968 346.973 41.7147 349.405 43.208C351.88 44.7013 353.821 46.8347 355.229 49.608C356.68 52.3387 357.405 55.5173 357.405 59.144C357.405 62.7707 356.68 65.992 355.229 68.808C353.821 71.5813 351.88 73.736 349.405 75.272C346.973 76.808 344.242 77.576 341.213 77.576C338.61 77.576 336.306 77.0427 334.301 75.976C332.338 74.9093 330.738 73.5653 329.501 71.944V93.896H320.541V41.544H329.501V46.664ZM348.253 59.144C348.253 57.0107 347.805 55.176 346.909 53.64C346.056 52.0613 344.904 50.8667 343.453 50.056C342.045 49.2453 340.509 48.84 338.845 48.84C337.224 48.84 335.688 49.2667 334.237 50.12C332.829 50.9307 331.677 52.1253 330.781 53.704C329.928 55.2827 329.501 57.1387 329.501 59.272C329.501 61.4053 329.928 63.2613 330.781 64.84C331.677 66.4187 332.829 67.6347 334.237 68.488C335.688 69.2987 337.224 69.704 338.845 69.704C340.509 69.704 342.045 69.2773 343.453 68.424C344.904 67.5707 346.056 66.3547 346.909 64.776C347.805 63.1973 348.253 61.32 348.253 59.144Z"
		fill="white" />
	<path fillRule="evenodd" clipRule="evenodd"
		d="M44 100C68.3033 99.9835 88 79.8428 88 55C88 30.1571 68.3033 10.0162 44 10C61.22 17.3546 73.3205 34.733 73.3205 55C73.3205 75.2667 61.22 92.6451 44 100Z"
		fill="#5E5E6C" />
	<path
		d="M0 26.0002C0 17.1635 6.94517 10 15.5125 10H25.79C50.2066 10 70 30.1472 70 54.9999C70 79.8529 50.2066 100 25.79 100H15.5125C6.94516 100 0 92.8365 0 83.9998V26.0002Z"
		fill="white" />
</svg>